<?xml version="1.0" standalone="no"?>
<!DOCTYPE svg PUBLIC "-//W3C//DTD SVG 20010904//EN"
 "http://www.w3.org/TR/2001/REC-SVG-20010904/DTD/svg10.dtd">
<svg version="1.0" xmlns="http://www.w3.org/2000/svg"
 width="345.000000pt" height="80.000000pt" viewBox="0 0 345.000000 80.000000"
 preserveAspectRatio="xMidYMid meet">

<g transform="translate(0.000000,80.000000) scale(0.100000,-0.100000)"
fill="#000000" stroke="none">
<path d="M556 425 c-40 -21 -55 -44 -56 -83 0 -56 23 -86 94 -120 67 -32 81
-53 54 -80 -19 -19 -66 -14 -89 9 -18 18 -24 19 -50 9 -37 -16 -37 -32 1 -64
54 -45 162 -44 204 3 26 28 31 83 12 120 -12 22 -36 41 -81 63 -67 34 -83 51
-64 74 15 18 38 18 60 -2 16 -14 20 -14 43 1 30 20 32 28 9 50 -36 36 -90 44
-137 20z"/>
<path d="M360 292 c0 -141 -5 -162 -40 -162 -9 0 -25 9 -35 20 -18 19 -18 19
-47 -2 l-30 -21 29 -29 c59 -58 159 -44 189 27 10 24 14 75 14 170 l0 135 -40
0 -40 0 0 -138z"/>
</g>
</svg>
